<svg
  width="20"
  height="20"
  viewBox="0 0 20 20"
  fill="none"
  xmlns="http://www.w3.org/2000/svg"
>
<path
    fill-rule="evenodd"
    clip-rule="evenodd"
    d="M12.7273 10C12.7273 11.5062 11.5062 12.7273 10 12.7273C8.49377 12.7273 7.27273 11.5062 7.27273 10C7.27273 8.49377 8.49377 7.27273 10 7.27273C11.5062 7.27273 12.7273 8.49377 12.7273 10ZM10.9091 10C10.9091 10.5021 10.5021 10.9091 10 10.9091C9.49792 10.9091 9.09091 10.5021 9.09091 10C9.09091 9.49792 9.49792 9.09091 10 9.09091C10.5021 9.09091 10.9091 9.49792 10.9091 10Z"
    fill="#A0AFC4"
  />
<path
    fill-rule="evenodd"
    clip-rule="evenodd"
    d="M10 16.3636C13.5145 16.3636 16.3636 13.5145 16.3636 10C16.3636 6.48546 13.5145 3.63636 10 3.63636C6.48546 3.63636 3.63636 6.48546 3.63636 10C3.63636 13.5145 6.48546 16.3636 10 16.3636ZM10 14.5455C12.5104 14.5455 14.5455 12.5104 14.5455 10C14.5455 7.48962 12.5104 5.45455 10 5.45455C7.48962 5.45455 5.45455 7.48962 5.45455 10C5.45455 12.5104 7.48962 14.5455 10 14.5455Z"
    fill="#A0AFC4"
  />
<path
    fill-rule="evenodd"
    clip-rule="evenodd"
    d="M10 20C15.5228 20 20 15.5228 20 10C20 4.47715 15.5228 0 10 0C4.47715 0 0 4.47715 0 10C0 15.5228 4.47715 20 10 20ZM10 18.1818C14.5187 18.1818 18.1818 14.5187 18.1818 10C18.1818 5.48131 14.5187 1.81818 10 1.81818C5.48131 1.81818 1.81818 5.48131 1.81818 10C1.81818 14.5187 5.48131 18.1818 10 18.1818Z"
    fill="#A0AFC4"
  />
</svg>
