<svg width="24" height="24" viewBox="0 0 24 24" fill="none" xmlns="http://www.w3.org/2000/svg">
<path d="M13 4.00869C13.0002 3.45641 12.5527 3.00852 12.0004 3.0083C11.4481 3.00808 11.0002 3.45562 11 4.00791L10.9968 12.0114C10.9966 12.5636 11.4442 13.0115 11.9965 13.0117C12.5487 13.012 12.9966 12.5644 12.9968 12.0121L13 4.00869Z" fill="#A0AFC4"/>
<path d="M4 12.9914C4 10.7823 4.89541 8.78235 6.34308 7.33464L7.7573 8.74885C6.67155 9.83464 6 11.3346 6 12.9914C6 16.3051 8.68629 18.9914 12 18.9914C15.3137 18.9914 18 16.3051 18 12.9914C18 11.3346 17.3284 9.83457 16.2426 8.74878L17.6568 7.33457C19.1046 8.78229 20 10.7823 20 12.9914C20 17.4097 16.4183 20.9914 12 20.9914C7.58172 20.9914 4 17.4097 4 12.9914Z" fill="#A0AFC4"/>
</svg>
