<svg width="20" height="20" viewBox="0 0 20 20" fill="none" xmlns="http://www.w3.org/2000/svg">
<path fill-rule="evenodd" clip-rule="evenodd" d="M13.3333 1.11111C13.3333 0.497462 13.8308 0 14.4444 0H16.6667C18.5076 0 20 1.49238 20 3.33333V5.55556C20 6.16921 19.5025 6.66667 18.8889 6.66667C18.2752 6.66667 17.7778 6.16921 17.7778 5.55556V4.44445C17.7778 3.21715 16.7829 2.22222 15.5556 2.22222H14.4444C13.8308 2.22222 13.3333 1.72476 13.3333 1.11111ZM16.6667 20C18.5076 20 20 18.5076 20 16.6667V14.4444C20 13.8308 19.5025 13.3333 18.8889 13.3333C18.2752 13.3333 17.7778 13.8308 17.7778 14.4444V15.5556C17.7778 16.7829 16.7829 17.7778 15.5556 17.7778H14.4444C13.8308 17.7778 13.3333 18.2752 13.3333 18.8889C13.3333 19.5025 13.8308 20 14.4444 20H16.6667ZM5.55556 0C6.16921 0 6.66667 0.497462 6.66667 1.11111C6.66667 1.72476 6.1692 2.22222 5.55556 2.22222H4.44444C3.21714 2.22222 2.22222 3.21715 2.22222 4.44444V5.55556C2.22222 6.16921 1.72476 6.66667 1.11111 6.66667C0.497461 6.66667 0 6.16921 0 5.55556V3.33333C0 1.49238 1.49238 0 3.33333 0H5.55556ZM2.22222 14.4444C2.22222 13.8308 1.72476 13.3333 1.11111 13.3333C0.497461 13.3333 0 13.8308 0 14.4444V16.6667C0 18.5076 1.49238 20 3.33333 20H5.55556C6.16921 20 6.66667 19.5025 6.66667 18.8889C6.66667 18.2752 6.1692 17.7778 5.55556 17.7778H4.44444C3.21714 17.7778 2.22222 16.7829 2.22222 15.5556V14.4444ZM15.5556 6.66667C15.5556 5.43937 14.5606 4.44444 13.3333 4.44444C12.106 4.44444 11.1111 5.43937 11.1111 6.66667C11.1111 7.89397 12.106 8.88889 13.3333 8.88889C14.5606 8.88889 15.5556 7.89397 15.5556 6.66667ZM15.5556 13.3333C15.5556 12.106 14.5606 11.1111 13.3333 11.1111C12.106 11.1111 11.1111 12.106 11.1111 13.3333C11.1111 14.5606 12.106 15.5556 13.3333 15.5556C14.5606 15.5556 15.5556 14.5606 15.5556 13.3333ZM4.44444 6.66667C4.44444 5.43937 5.43937 4.44444 6.66667 4.44444C7.89396 4.44444 8.88889 5.43937 8.88889 6.66667C8.88889 7.89397 7.89396 8.88889 6.66667 8.88889C5.43937 8.88889 4.44444 7.89397 4.44444 6.66667ZM8.88889 13.3333C8.88889 12.106 7.89396 11.1111 6.66667 11.1111C5.43937 11.1111 4.44444 12.106 4.44444 13.3333C4.44444 14.5606 5.43937 15.5556 6.66667 15.5556C7.89396 15.5556 8.88889 14.5606 8.88889 13.3333Z" fill="#A0AFC4"/>
</svg>
